<mxfile host="app.diagrams.net" modified="2022-11-30T10:53:47.307Z" agent="5.0 (Windows NT 10.0; Win64; x64) AppleWebKit/537.36 (KHTML, like Gecko) Chrome/107.0.0.0 Safari/537.36" version="20.6.0" etag="mBvTb_mi73GWxSt33CEY" type="github">
  <diagram id="EftBeQm9aG7_TJiRymJP" name="Page-1">
    <mxGraphModel dx="868" dy="393" grid="1" gridSize="10" guides="1" tooltips="1" connect="1" arrows="1" fold="1" page="1" pageScale="1" pageWidth="850" pageHeight="1100" math="0" shadow="0">
      <root>
        <mxCell id="0" />
        <mxCell id="1" parent="0" />
        <mxCell id="IV_SnDQwNL7Z8S3060Eh-1" value="" style="rounded=0;whiteSpace=wrap;html=1;" vertex="1" parent="1">
          <mxGeometry x="120" y="80" width="120" height="60" as="geometry" />
        </mxCell>
        <mxCell id="IV_SnDQwNL7Z8S3060Eh-2" value="" style="rounded=0;whiteSpace=wrap;html=1;" vertex="1" parent="1">
          <mxGeometry x="640" y="80" width="120" height="60" as="geometry" />
        </mxCell>
        <mxCell id="IV_SnDQwNL7Z8S3060Eh-3" value="" style="endArrow=none;html=1;rounded=0;entryX=0.5;entryY=1;entryDx=0;entryDy=0;" edge="1" parent="1" target="IV_SnDQwNL7Z8S3060Eh-1">
          <mxGeometry width="50" height="50" relative="1" as="geometry">
            <mxPoint x="180" y="540" as="sourcePoint" />
            <mxPoint x="450" y="180" as="targetPoint" />
          </mxGeometry>
        </mxCell>
        <mxCell id="IV_SnDQwNL7Z8S3060Eh-4" value="" style="endArrow=classic;html=1;rounded=0;" edge="1" parent="1">
          <mxGeometry width="50" height="50" relative="1" as="geometry">
            <mxPoint x="180" y="240" as="sourcePoint" />
            <mxPoint x="700" y="240" as="targetPoint" />
          </mxGeometry>
        </mxCell>
        <mxCell id="IV_SnDQwNL7Z8S3060Eh-6" value="Card Actiation and Reset API Request" style="edgeLabel;html=1;align=center;verticalAlign=middle;resizable=0;points=[];" vertex="1" connectable="0" parent="IV_SnDQwNL7Z8S3060Eh-4">
          <mxGeometry x="-0.1115" y="1" relative="1" as="geometry">
            <mxPoint as="offset" />
          </mxGeometry>
        </mxCell>
        <mxCell id="IV_SnDQwNL7Z8S3060Eh-5" value="" style="endArrow=classic;html=1;rounded=0;" edge="1" parent="1">
          <mxGeometry width="50" height="50" relative="1" as="geometry">
            <mxPoint x="700" y="280" as="sourcePoint" />
            <mxPoint x="180" y="280" as="targetPoint" />
          </mxGeometry>
        </mxCell>
        <mxCell id="IV_SnDQwNL7Z8S3060Eh-7" value="Card Activation and Reset API Response" style="edgeLabel;html=1;align=center;verticalAlign=middle;resizable=0;points=[];" vertex="1" connectable="0" parent="IV_SnDQwNL7Z8S3060Eh-5">
          <mxGeometry x="0.0846" y="-1" relative="1" as="geometry">
            <mxPoint as="offset" />
          </mxGeometry>
        </mxCell>
        <mxCell id="IV_SnDQwNL7Z8S3060Eh-8" value="" style="endArrow=classic;html=1;rounded=0;" edge="1" parent="1">
          <mxGeometry width="50" height="50" relative="1" as="geometry">
            <mxPoint x="182" y="345" as="sourcePoint" />
            <mxPoint x="702" y="345" as="targetPoint" />
          </mxGeometry>
        </mxCell>
        <mxCell id="IV_SnDQwNL7Z8S3060Eh-9" value="Card Pin Reset Management API Request" style="edgeLabel;html=1;align=center;verticalAlign=middle;resizable=0;points=[];" vertex="1" connectable="0" parent="IV_SnDQwNL7Z8S3060Eh-8">
          <mxGeometry x="-0.1115" y="1" relative="1" as="geometry">
            <mxPoint as="offset" />
          </mxGeometry>
        </mxCell>
        <mxCell id="IV_SnDQwNL7Z8S3060Eh-10" value="" style="endArrow=classic;html=1;rounded=0;" edge="1" parent="1">
          <mxGeometry width="50" height="50" relative="1" as="geometry">
            <mxPoint x="702" y="385" as="sourcePoint" />
            <mxPoint x="182" y="385" as="targetPoint" />
          </mxGeometry>
        </mxCell>
        <mxCell id="IV_SnDQwNL7Z8S3060Eh-11" value="Card Pin Reset Management API Response" style="edgeLabel;html=1;align=center;verticalAlign=middle;resizable=0;points=[];" vertex="1" connectable="0" parent="IV_SnDQwNL7Z8S3060Eh-10">
          <mxGeometry x="0.0846" y="-1" relative="1" as="geometry">
            <mxPoint as="offset" />
          </mxGeometry>
        </mxCell>
        <mxCell id="IV_SnDQwNL7Z8S3060Eh-12" value="" style="endArrow=classic;html=1;rounded=0;" edge="1" parent="1">
          <mxGeometry width="50" height="50" relative="1" as="geometry">
            <mxPoint x="183" y="455" as="sourcePoint" />
            <mxPoint x="703" y="455" as="targetPoint" />
          </mxGeometry>
        </mxCell>
        <mxCell id="IV_SnDQwNL7Z8S3060Eh-13" value="Card Pin Change API Request" style="edgeLabel;html=1;align=center;verticalAlign=middle;resizable=0;points=[];" vertex="1" connectable="0" parent="IV_SnDQwNL7Z8S3060Eh-12">
          <mxGeometry x="-0.1115" y="1" relative="1" as="geometry">
            <mxPoint as="offset" />
          </mxGeometry>
        </mxCell>
        <mxCell id="IV_SnDQwNL7Z8S3060Eh-14" value="" style="endArrow=classic;html=1;rounded=0;" edge="1" parent="1">
          <mxGeometry width="50" height="50" relative="1" as="geometry">
            <mxPoint x="702" y="495" as="sourcePoint" />
            <mxPoint x="182" y="495" as="targetPoint" />
          </mxGeometry>
        </mxCell>
        <mxCell id="IV_SnDQwNL7Z8S3060Eh-15" value="Card Pin Change API Response" style="edgeLabel;html=1;align=center;verticalAlign=middle;resizable=0;points=[];" vertex="1" connectable="0" parent="IV_SnDQwNL7Z8S3060Eh-14">
          <mxGeometry x="0.0846" y="-1" relative="1" as="geometry">
            <mxPoint as="offset" />
          </mxGeometry>
        </mxCell>
        <mxCell id="IV_SnDQwNL7Z8S3060Eh-16" value="" style="endArrow=none;html=1;rounded=0;entryX=0.5;entryY=1;entryDx=0;entryDy=0;" edge="1" parent="1">
          <mxGeometry width="50" height="50" relative="1" as="geometry">
            <mxPoint x="704" y="542" as="sourcePoint" />
            <mxPoint x="704" y="142" as="targetPoint" />
          </mxGeometry>
        </mxCell>
      </root>
    </mxGraphModel>
  </diagram>
</mxfile>
